<?xml version="1.0" encoding="utf-8"?>
<!-- Generator: Adobe Illustrator 27.2.0, SVG Export Plug-In . SVG Version: 6.00 Build 0)  -->
<svg version="1.1" id="Layer_1" xmlns="http://www.w3.org/2000/svg" xmlns:xlink="http://www.w3.org/1999/xlink" x="0px" y="0px"
	 viewBox="0 0 38 58" style="enable-background:new 0 0 38 58;" xml:space="preserve">
<style type="text/css">
	.st0{fill:#FF6F61;}
</style>
<path class="st0" d="M36.2,56.5c0.9,0,1.6-0.9,1.3-1.8L20.1,2.2l0,0.1l0-0.1L5.4,43.6c-0.4,1.1,0.8,2.2,1.9,1.7l7-3.2
	c0.3-0.2,0.6-0.4,0.7-0.8l3.5-9.7c0.4-1.2,2.2-1.2,2.6,0L29,55.6c0.2,0.6,0.7,0.9,1.3,0.9H36.2z"/>
<path class="st0" d="M22.3,41.9L22.3,41.9c0.2,0.7-0.1,1.5-0.7,1.8L5.4,51.1c-1.1,0.5-2.3-0.6-1.9-1.7l0,0c0.1-0.3,0.4-0.6,0.7-0.8
	l16.2-7.5C21.2,40.7,22.1,41.1,22.3,41.9z"/>
<path class="st0" d="M23.6,45.8l0.1,0.4c0.2,0.6-0.1,1.2-0.6,1.5L4.3,56.4c-0.2,0.1-0.3,0.1-0.5,0.1H2.7c-0.8,0-1.4-0.8-1.1-1.6l0,0
	c0.1-0.3,0.3-0.6,0.6-0.7L22,45.1C22.6,44.8,23.4,45.2,23.6,45.8z"/>
</svg>
